<?xml version="1.0" encoding="UTF-8" standalone="no"?><svg xmlns="http://www.w3.org/2000/svg" xmlns:xlink="http://www.w3.org/1999/xlink" contentScriptType="application/ecmascript" contentStyleType="text/css" height="687px" preserveAspectRatio="none" style="width:2062px;height:687px;" version="1.1" viewBox="0 0 2062 687" width="2062px" zoomAndPan="magnify"><defs><filter height="300%" id="f1b9l6apfjif90" width="300%" x="-1" y="-1"><feGaussianBlur result="blurOut" stdDeviation="2.0"/><feColorMatrix in="blurOut" result="blurOut2" type="matrix" values="0 0 0 0 0 0 0 0 0 0 0 0 0 0 0 0 0 0 .4 0"/><feOffset dx="4.0" dy="4.0" in="blurOut2" result="blurOut3"/><feBlend in="SourceGraphic" in2="blurOut3" mode="normal"/></filter></defs><g><text fill="#000000" font-family="sans-serif" font-size="18" lengthAdjust="spacingAndGlyphs" textLength="318" x="874" y="16.708">S3-Platform — Component Diagram</text><!--MD5=[8699c0c8e953ee53654a072cc875bfb4]
cluster Browser--><polygon fill="#FFFFFF" filter="url(#f1b9l6apfjif90)" points="225,210.4531,298,210.4531,305,232.75,433,232.75,433,314.4531,225,314.4531,225,210.4531" style="stroke: #000000; stroke-width: 1.5;"/><line style="stroke: #000000; stroke-width: 1.5;" x1="225" x2="305" y1="232.75" y2="232.75"/><text fill="#000000" font-family="sans-serif" font-size="14" font-weight="bold" lengthAdjust="spacingAndGlyphs" textLength="67" x="229" y="225.4482">Browser</text><!--MD5=[0503979c662d25e757fdf294d48042d0]
cluster Compose host (s3p-n8n)--><polygon fill="#FFFFFF" filter="url(#f1b9l6apfjif90)" points="771,45.4531,973,45.4531,980,67.75,1204,67.75,1204,471.9531,771,471.9531,771,45.4531" style="stroke: #000000; stroke-width: 1.5;"/><line style="stroke: #000000; stroke-width: 1.5;" x1="771" x2="980" y1="67.75" y2="67.75"/><text fill="#000000" font-family="sans-serif" font-size="14" font-weight="bold" lengthAdjust="spacingAndGlyphs" textLength="196" x="775" y="60.4482">Compose host (s3p-n8n)</text><!--MD5=[9b10610bfe8a6f355cdeb2b5ffe0ded9]
cluster VM (s3p-tape-service)--><polygon fill="#FFFFFF" filter="url(#f1b9l6apfjif90)" points="22,363.4531,203,363.4531,210,385.75,418,385.75,418,658.4531,22,658.4531,22,363.4531" style="stroke: #000000; stroke-width: 1.5;"/><line style="stroke: #000000; stroke-width: 1.5;" x1="22" x2="210" y1="385.75" y2="385.75"/><text fill="#000000" font-family="sans-serif" font-size="14" font-weight="bold" lengthAdjust="spacingAndGlyphs" textLength="175" x="26" y="378.4482">VM (s3p-tape-service)</text><!--MD5=[737bbdf38f2ef2f4cd9880d2a6b30060]
cluster Kubernetes cluster (demo-s3p-dev)--><polygon fill="#FFFFFF" filter="url(#f1b9l6apfjif90)" points="1228,210.4531,1518,210.4531,1525,232.75,1528,232.75,1528,467.4531,1228,467.4531,1228,210.4531" style="stroke: #000000; stroke-width: 1.5;"/><line style="stroke: #000000; stroke-width: 1.5;" x1="1228" x2="1525" y1="232.75" y2="232.75"/><text fill="#000000" font-family="sans-serif" font-size="14" font-weight="bold" lengthAdjust="spacingAndGlyphs" textLength="284" x="1232" y="225.4482">Kubernetes cluster (demo-s3p-dev)</text><!--MD5=[0d477773438490488e27559b26daf072]
cluster Shared library--><polygon fill="#FFFFFF" filter="url(#f1b9l6apfjif90)" points="792,556.9531,909,556.9531,916,579.25,968,579.25,968,663.9531,792,663.9531,792,556.9531" style="stroke: #000000; stroke-width: 1.5;"/><line style="stroke: #000000; stroke-width: 1.5;" x1="792" x2="916" y1="579.25" y2="579.25"/><text fill="#000000" font-family="sans-serif" font-size="14" font-weight="bold" lengthAdjust="spacingAndGlyphs" textLength="111" x="796" y="571.9482">Shared library</text><!--MD5=[46add8cf7bf384e60847f614ab2d9898]
cluster github--><path d="M1642.0001,230.0256 C1647.6216,217.4856 1656.777,217.5651 1665.4569,226.7186 C1675.9129,214.2987 1687.1637,212.2911 1695.8834,228.56 C1702.42,214.8388 1712.1284,214.8787 1721.4629,225.6362 C1730.2726,211.3712 1742.0641,214.0201 1750.5107,226.0375 C1759.0548,214.5752 1768.1335,214.2638 1776.6574,226.0601 C1783.275,212.4015 1793.6655,213.3566 1801.2759,225.0978 C1808.5164,209.0487 1818.4303,208.9099 1829.2891,221.5667 C1837.8107,210.2215 1848.4694,210.0907 1856.3232,222.332 C1866.8521,211.9874 1875.4868,210.0429 1883.2097,225.2811 C1889.7565,210.5815 1903.9229,208.8307 1912.1614,223.6202 C1920.1829,210.9363 1929.6834,211.7656 1936.6759,224.6085 C1947.1614,209.4211 1956.0525,210.5229 1965.2209,225.8409 C1974.4472,215.8928 1982.4588,214.3461 1990.7712,226.8795 C2002.962,212.083 2016.8451,217.2263 2024,232.4531 C2026.5767,231.6112 2028.1051,232.5516 2028.0205,235.3735 C2040.2833,243.5567 2043.0631,251.4685 2029.8958,261.4785 C2043.6895,269.2623 2043.9436,282.549 2029.1782,289.6042 C2041.8161,293.7149 2045.6379,305.8567 2034.2526,314.8048 C2048.9599,322.5661 2050.2417,333.6786 2035.9678,343.191 C2047.0237,351.7643 2046.254,361.8236 2034.3345,368.9395 C2046.3007,379.1355 2043.1618,391.8217 2027.8927,395.3831 C2038.4959,403.2208 2040.1019,411.3927 2027.458,418.7988 C2042.1815,433.3193 2035.8282,447.3451 2017,450.9531 C2020.0928,449.7277 2022.3009,451.114 2021.8,454.6081 C2011.7691,470.1695 2000.216,466.8408 1992.2209,452.5884 C1983.9418,468.0683 1974.1495,468.6722 1964.0057,454.3541 C1956.8791,466.684 1949.5521,466.1096 1940.6664,456.2002 C1931.8097,470.9411 1920.7472,471.5538 1911.9475,456.1458 C1904.814,470.6954 1895.7156,470.8302 1884.6413,460.4648 C1876.8948,472.2899 1865.4788,473.7351 1858.809,459.4015 C1850.6883,472.399 1842.4707,472.4268 1832.1511,461.8926 C1821.985,474.427 1806.3358,475.4671 1800.8232,457.165 C1793.9267,468.5857 1782.4189,471.8425 1774.2245,458.5627 C1766.7182,467.9673 1758.4332,468.0831 1751.0647,458.3956 C1741.5423,472.8395 1728.2962,470.6527 1722.4065,454.9431 C1714.2139,468.6316 1705.5914,467.8532 1696.83,455.5017 C1686.7424,467.1634 1678.1292,469.45 1668.9,454.5976 C1650.2832,470.2639 1638.5345,467.7462 1631,443.9531 C1632.9985,442.2495 1634.6797,443.6188 1634.9662,445.7321 C1623.4766,439.0951 1620.1049,431.2387 1631.8608,421.6093 C1619.4477,411.6161 1619.2943,401.472 1632.685,392.202 C1621.5028,384.8602 1620.0356,372.1842 1632.5216,364.7017 C1622.096,356.5572 1622.5197,349.557 1632.6188,341.4986 C1618.4324,335.3197 1618.4912,322.264 1631.8848,315.312 C1620.4512,309.0224 1619.7011,296.1866 1630.2996,288.5901 C1620.3462,279.966 1623.4768,268.4174 1634.9361,263.7978 C1617.4228,251.8396 1620.1589,234.5863 1638,225.4531 C1641.6234,224.692 1642.9875,226.7531 1642.0001,230.0256 " fill="#FFFFFF" style="stroke: #000000; stroke-width: 1.5;"/><text fill="#000000" font-family="sans-serif" font-size="14" font-weight="bold" lengthAdjust="spacingAndGlyphs" textLength="53" x="1801" y="243.4482">GitHub</text><!--MD5=[08af8945a84acfe1eabc0963aa87c412]
entity web--><rect fill="#FEFECE" filter="url(#f1b9l6apfjif90)" height="52.5938" style="stroke: #A80036; stroke-width: 1.5;" width="176" x="241" y="245.4531"/><rect fill="#FEFECE" height="5" style="stroke: #A80036; stroke-width: 1.5;" width="10" x="236" y="250.4531"/><rect fill="#FEFECE" height="5" style="stroke: #A80036; stroke-width: 1.5;" width="10" x="236" y="288.0469"/><text fill="#000000" font-family="sans-serif" font-size="14" lengthAdjust="spacingAndGlyphs" textLength="139" x="251" y="268.4482">s3p-web-annotation</text><text fill="#000000" font-family="sans-serif" font-size="14" lengthAdjust="spacingAndGlyphs" textLength="156" x="251" y="284.7451">(React 19 + TS + Vite)</text><!--MD5=[aced180f6a091dc946f9c2c2b65ecbfe]
entity n8n--><rect fill="#FEFECE" filter="url(#f1b9l6apfjif90)" height="36.2969" style="stroke: #A80036; stroke-width: 1.5;" width="134" x="808" y="253.9531"/><rect fill="#FEFECE" height="5" style="stroke: #A80036; stroke-width: 1.5;" width="10" x="803" y="258.9531"/><rect fill="#FEFECE" height="5" style="stroke: #A80036; stroke-width: 1.5;" width="10" x="803" y="280.25"/><text fill="#000000" font-family="sans-serif" font-size="14" lengthAdjust="spacingAndGlyphs" textLength="114" x="818" y="276.9482">n8nio/n8n:latest</text><!--MD5=[8596636cc728d01b2fb4894c18d5c658]
entity sapi--><rect fill="#FEFECE" filter="url(#f1b9l6apfjif90)" height="36.2969" style="stroke: #A80036; stroke-width: 1.5;" width="121" x="821.5" y="406.9531"/><rect fill="#FEFECE" height="5" style="stroke: #A80036; stroke-width: 1.5;" width="10" x="816.5" y="411.9531"/><rect fill="#FEFECE" height="5" style="stroke: #A80036; stroke-width: 1.5;" width="10" x="816.5" y="433.25"/><text fill="#000000" font-family="sans-serif" font-size="14" lengthAdjust="spacingAndGlyphs" textLength="101" x="831.5" y="429.9482">s3p-simple-api</text><!--MD5=[d52206fc49d66df9b7d40a65f3979c6c]
entity n8n_pg--><path d="M995,403.9531 C995,393.9531 1053,393.9531 1053,393.9531 C1053,393.9531 1111,393.9531 1111,403.9531 L1111,445.5469 C1111,455.5469 1053,455.5469 1053,455.5469 C1053,455.5469 995,455.5469 995,445.5469 L995,403.9531 " fill="#FEFECE" filter="url(#f1b9l6apfjif90)" style="stroke: #000000; stroke-width: 1.5;"/><path d="M995,403.9531 C995,413.9531 1053,413.9531 1053,413.9531 C1053,413.9531 1111,413.9531 1111,403.9531 " fill="none" style="stroke: #000000; stroke-width: 1.5;"/><text fill="#000000" font-family="sans-serif" font-size="14" lengthAdjust="spacingAndGlyphs" textLength="96" x="1005" y="430.9482">n8n metadata</text><text fill="#000000" font-family="sans-serif" font-size="14" lengthAdjust="spacingAndGlyphs" textLength="94" x="1005" y="447.2451">(Postgres 12)</text><!--MD5=[270e544668f7dd16dc722c8b8d904cec]
entity bkp--><rect fill="#FEFECE" filter="url(#f1b9l6apfjif90)" height="36.2969" style="stroke: #A80036; stroke-width: 1.5;" width="96" x="1022" y="253.9531"/><rect fill="#FEFECE" height="5" style="stroke: #A80036; stroke-width: 1.5;" width="10" x="1017" y="258.9531"/><rect fill="#FEFECE" height="5" style="stroke: #A80036; stroke-width: 1.5;" width="10" x="1017" y="280.25"/><text fill="#000000" font-family="sans-serif" font-size="14" lengthAdjust="spacingAndGlyphs" textLength="76" x="1032" y="276.9482">pg_backup</text><!--MD5=[8ee72312a385550bb9dbe93431455fdd]
entity ah--><rect fill="#FEFECE" filter="url(#f1b9l6apfjif90)" height="36.2969" style="stroke: #A80036; stroke-width: 1.5;" width="80" x="835" y="80.4531"/><rect fill="#FEFECE" height="5" style="stroke: #A80036; stroke-width: 1.5;" width="10" x="830" y="85.4531"/><rect fill="#FEFECE" height="5" style="stroke: #A80036; stroke-width: 1.5;" width="10" x="830" y="106.75"/><text fill="#000000" font-family="sans-serif" font-size="14" lengthAdjust="spacingAndGlyphs" textLength="60" x="845" y="103.4482">autoheal</text><!--MD5=[3349f97e336644e832bc9b5b8a035f04]
entity tape_api--><rect fill="#FEFECE" filter="url(#f1b9l6apfjif90)" height="52.5938" style="stroke: #A80036; stroke-width: 1.5;" width="144" x="258" y="398.4531"/><rect fill="#FEFECE" height="5" style="stroke: #A80036; stroke-width: 1.5;" width="10" x="253" y="403.4531"/><rect fill="#FEFECE" height="5" style="stroke: #A80036; stroke-width: 1.5;" width="10" x="253" y="441.0469"/><text fill="#000000" font-family="sans-serif" font-size="14" lengthAdjust="spacingAndGlyphs" textLength="110" x="268" y="421.4482">tape-service-api</text><text fill="#000000" font-family="sans-serif" font-size="14" lengthAdjust="spacingAndGlyphs" textLength="124" x="268" y="437.7451">(FastAPI / Uvicorn)</text><!--MD5=[b456767b4878c1aa96ff2cc30a66cb2a]
entity tape_worker--><rect fill="#FEFECE" filter="url(#f1b9l6apfjif90)" height="52.5938" style="stroke: #A80036; stroke-width: 1.5;" width="185" x="37.5" y="398.4531"/><rect fill="#FEFECE" height="5" style="stroke: #A80036; stroke-width: 1.5;" width="10" x="32.5" y="403.4531"/><rect fill="#FEFECE" height="5" style="stroke: #A80036; stroke-width: 1.5;" width="10" x="32.5" y="441.0469"/><text fill="#000000" font-family="sans-serif" font-size="14" lengthAdjust="spacingAndGlyphs" textLength="137" x="47.5" y="421.4482">tape-service-worker</text><text fill="#000000" font-family="sans-serif" font-size="14" lengthAdjust="spacingAndGlyphs" textLength="165" x="47.5" y="437.7451">(APScheduler + LISTEN)</text><!--MD5=[de5dc476b5cd49b5a92d294ad2af7d70]
entity redis--><path d="M108.5,607.4531 C108.5,597.4531 138,597.4531 138,597.4531 C138,597.4531 167.5,597.4531 167.5,607.4531 L167.5,632.75 C167.5,642.75 138,642.75 138,642.75 C138,642.75 108.5,642.75 108.5,632.75 L108.5,607.4531 " fill="#FEFECE" filter="url(#f1b9l6apfjif90)" style="stroke: #000000; stroke-width: 1.5;"/><path d="M108.5,607.4531 C108.5,617.4531 138,617.4531 138,617.4531 C138,617.4531 167.5,617.4531 167.5,607.4531 " fill="none" style="stroke: #000000; stroke-width: 1.5;"/><text fill="#000000" font-family="sans-serif" font-size="14" lengthAdjust="spacingAndGlyphs" textLength="39" x="118.5" y="634.4482">Redis</text><!--MD5=[0b70d51bdd028022f5101c089cfdd98e]
entity node--><rect fill="#FEFECE" filter="url(#f1b9l6apfjif90)" height="52.5938" style="stroke: #A80036; stroke-width: 1.5;" width="151" x="1244.5" y="398.4531"/><rect fill="#FEFECE" height="5" style="stroke: #A80036; stroke-width: 1.5;" width="10" x="1239.5" y="403.4531"/><rect fill="#FEFECE" height="5" style="stroke: #A80036; stroke-width: 1.5;" width="10" x="1239.5" y="441.0469"/><text fill="#000000" font-family="sans-serif" font-size="14" lengthAdjust="spacingAndGlyphs" textLength="67" x="1254.5" y="421.4482">s3p-node</text><text fill="#000000" font-family="sans-serif" font-size="14" lengthAdjust="spacingAndGlyphs" textLength="131" x="1254.5" y="437.7451">(3 replicas, worker)</text><!--MD5=[e7dc53d0c74cf6ab85b828d22029d152]
entity argo--><rect fill="#FEFECE" filter="url(#f1b9l6apfjif90)" height="52.5938" style="stroke: #A80036; stroke-width: 1.5;" width="152" x="1244" y="245.4531"/><rect fill="#FEFECE" height="5" style="stroke: #A80036; stroke-width: 1.5;" width="10" x="1239" y="250.4531"/><rect fill="#FEFECE" height="5" style="stroke: #A80036; stroke-width: 1.5;" width="10" x="1239" y="288.0469"/><text fill="#000000" font-family="sans-serif" font-size="14" lengthAdjust="spacingAndGlyphs" textLength="132" x="1254" y="268.4482">ArgoCD Application</text><text fill="#000000" font-family="sans-serif" font-size="14" lengthAdjust="spacingAndGlyphs" textLength="84" x="1254" y="284.7451">(cloud-core)</text><!--MD5=[1344c822e198f17c7a138ae37b519ce9]
entity sdk--><rect fill="#FEFECE" filter="url(#f1b9l6apfjif90)" height="55.5938" style="stroke: #000000; stroke-width: 1.5;" width="143" x="808.5" y="591.9531"/><polygon fill="#FEFECE" points="934.5,596.9531,934.5,610.9531,946.5,610.9531,946.5,602.9531,940.5,596.9531,934.5,596.9531" style="stroke: #000000; stroke-width: 1.5;"/><line style="stroke: #000000; stroke-width: 1.5;" x1="940.5" x2="940.5" y1="596.9531" y2="602.9531"/><line style="stroke: #000000; stroke-width: 1.5;" x1="946.5" x2="940.5" y1="602.9531" y2="602.9531"/><text fill="#000000" font-family="sans-serif" font-size="14" lengthAdjust="spacingAndGlyphs" textLength="56" x="818.5" y="617.9482">s3p-sdk</text><text fill="#000000" font-family="sans-serif" font-size="14" lengthAdjust="spacingAndGlyphs" textLength="113" x="818.5" y="634.2451">(Python lib, PyPI)</text><!--MD5=[68d4a5ecee6685a568e674e6844bd0dc]
entity tpl--><rect fill="#FEFECE" filter="url(#f1b9l6apfjif90)" height="39.2969" style="stroke: #000000; stroke-width: 1.5;" width="174" x="1842" y="252.4531"/><polygon fill="#FEFECE" points="1999,257.4531,1999,271.4531,2011,271.4531,2011,263.4531,2005,257.4531,1999,257.4531" style="stroke: #000000; stroke-width: 1.5;"/><line style="stroke: #000000; stroke-width: 1.5;" x1="2005" x2="2005" y1="257.4531" y2="263.4531"/><line style="stroke: #000000; stroke-width: 1.5;" x1="2011" x2="2005" y1="263.4531" y2="263.4531"/><text fill="#000000" font-family="sans-serif" font-size="14" lengthAdjust="spacingAndGlyphs" textLength="144" x="1852" y="278.4482">plugin-template repo</text><!--MD5=[3924e9f2b2377beb49f547c9b0bd8f56]
entity plugrepo--><rect fill="#FEFECE" filter="url(#f1b9l6apfjif90)" height="39.2969" style="stroke: #000000; stroke-width: 1.5;" width="168" x="1639" y="252.4531"/><polygon fill="#FEFECE" points="1790,257.4531,1790,271.4531,1802,271.4531,1802,263.4531,1796,257.4531,1790,257.4531" style="stroke: #000000; stroke-width: 1.5;"/><line style="stroke: #000000; stroke-width: 1.5;" x1="1796" x2="1796" y1="257.4531" y2="263.4531"/><line style="stroke: #000000; stroke-width: 1.5;" x1="1802" x2="1796" y1="263.4531" y2="263.4531"/><text fill="#000000" font-family="sans-serif" font-size="14" lengthAdjust="spacingAndGlyphs" textLength="138" x="1649" y="278.4482">plugin source repos</text><!--MD5=[1a47f64e3c0786374c5eae92851bd3f9]
entity gha--><rect fill="#FEFECE" filter="url(#f1b9l6apfjif90)" height="36.2969" style="stroke: #A80036; stroke-width: 1.5;" width="139" x="1653.5" y="406.9531"/><rect fill="#FEFECE" height="5" style="stroke: #A80036; stroke-width: 1.5;" width="10" x="1648.5" y="411.9531"/><rect fill="#FEFECE" height="5" style="stroke: #A80036; stroke-width: 1.5;" width="10" x="1648.5" y="433.25"/><text fill="#000000" font-family="sans-serif" font-size="14" lengthAdjust="spacingAndGlyphs" textLength="119" x="1663.5" y="429.9482">GitHub Actions CI</text><!--MD5=[ddf82c05e0d770bc938be8191a0b3419]
entity expert--><ellipse cx="329" cy="58.9531" fill="#FEFECE" filter="url(#f1b9l6apfjif90)" rx="8" ry="8" style="stroke: #A80036; stroke-width: 1.5;"/><path d="M329,66.9531 L329,93.9531 M316,74.9531 L342,74.9531 M329,93.9531 L316,108.9531 M329,93.9531 L342,108.9531 " fill="none" filter="url(#f1b9l6apfjif90)" style="stroke: #A80036; stroke-width: 1.5;"/><text fill="#000000" font-family="sans-serif" font-size="14" lengthAdjust="spacingAndGlyphs" textLength="75" x="291.5" y="127.4482">Annotation</text><text fill="#000000" font-family="sans-serif" font-size="14" lengthAdjust="spacingAndGlyphs" textLength="44" x="291.5" y="143.7451">Expert</text><!--MD5=[2d3c5e0b954a749fced3fb92086cf371]
entity author--><ellipse cx="1825" cy="58.9531" fill="#FEFECE" filter="url(#f1b9l6apfjif90)" rx="8" ry="8" style="stroke: #A80036; stroke-width: 1.5;"/><path d="M1825,66.9531 L1825,93.9531 M1812,74.9531 L1838,74.9531 M1825,93.9531 L1812,108.9531 M1825,93.9531 L1838,108.9531 " fill="none" filter="url(#f1b9l6apfjif90)" style="stroke: #A80036; stroke-width: 1.5;"/><text fill="#000000" font-family="sans-serif" font-size="14" lengthAdjust="spacingAndGlyphs" textLength="42" x="1802" y="127.4482">Plugin</text><text fill="#000000" font-family="sans-serif" font-size="14" lengthAdjust="spacingAndGlyphs" textLength="46" x="1802" y="143.7451">Author</text><!--MD5=[0050c6625e3b42e2857ba4d8ed699679]
entity operator--><ellipse cx="1269" cy="58.9531" fill="#FEFECE" filter="url(#f1b9l6apfjif90)" rx="8" ry="8" style="stroke: #A80036; stroke-width: 1.5;"/><path d="M1269,66.9531 L1269,93.9531 M1256,74.9531 L1282,74.9531 M1269,93.9531 L1256,108.9531 M1269,93.9531 L1282,108.9531 " fill="none" filter="url(#f1b9l6apfjif90)" style="stroke: #A80036; stroke-width: 1.5;"/><text fill="#000000" font-family="sans-serif" font-size="14" lengthAdjust="spacingAndGlyphs" textLength="56" x="1238.5" y="127.4482">Platform</text><text fill="#000000" font-family="sans-serif" font-size="14" lengthAdjust="spacingAndGlyphs" textLength="61" x="1238.5" y="143.7451">Operator</text><!--MD5=[d9ff8e18332f885cb7c051c8f655f787]
entity sched--><ellipse cx="704" cy="75.25" fill="#FEFECE" filter="url(#f1b9l6apfjif90)" rx="8" ry="8" style="stroke: #A80036; stroke-width: 1.5;"/><path d="M704,83.25 L704,110.25 M691,91.25 L717,91.25 M704,110.25 L691,125.25 M704,110.25 L717,125.25 " fill="none" filter="url(#f1b9l6apfjif90)" style="stroke: #A80036; stroke-width: 1.5;"/><text fill="#000000" font-family="sans-serif" font-size="14" lengthAdjust="spacingAndGlyphs" textLength="101" x="653.5" y="143.7451">n8n Scheduler</text><text fill="#000000" font-family="sans-serif" font-size="14" font-style="italic" lengthAdjust="spacingAndGlyphs" textLength="67" x="670.5" y="62.4482">«system»</text><!--MD5=[7468467f3b6b392f1d176d828c753b77]
entity db--><path d="M538.5,574.9531 C538.5,564.9531 656,564.9531 656,564.9531 C656,564.9531 773.5,564.9531 773.5,574.9531 L773.5,665.4375 C773.5,675.4375 656,675.4375 656,675.4375 C656,675.4375 538.5,675.4375 538.5,665.4375 L538.5,574.9531 " fill="#FEFECE" filter="url(#f1b9l6apfjif90)" style="stroke: #000000; stroke-width: 1.5;"/><path d="M538.5,574.9531 C538.5,584.9531 656,584.9531 656,584.9531 C656,584.9531 773.5,584.9531 773.5,574.9531 " fill="none" style="stroke: #000000; stroke-width: 1.5;"/><text fill="#000000" font-family="sans-serif" font-size="14" lengthAdjust="spacingAndGlyphs" textLength="95" x="548.5" y="601.9482">s3p-database</text><text fill="#000000" font-family="sans-serif" font-size="14" lengthAdjust="spacingAndGlyphs" textLength="165" x="548.5" y="618.2451">(Postgres 16, schemas:</text><text fill="#000000" font-family="sans-serif" font-size="14" lengthAdjust="spacingAndGlyphs" textLength="215" x="548.5" y="634.542">nodes, tasks, plugins, sources,</text><text fill="#000000" font-family="sans-serif" font-size="14" lengthAdjust="spacingAndGlyphs" textLength="174" x="548.5" y="650.8389">ml, documents, analytics,</text><text fill="#000000" font-family="sans-serif" font-size="14" lengthAdjust="spacingAndGlyphs" textLength="147" x="548.5" y="667.1357">control, score, users)</text><!--MD5=[b165ca7cce796f881c879adda4a6bef9]
entity s3--><path d="M1611.7284,597.3267 C1617.301,589.7795 1624.9154,591.4768 1629.1222,598.9122 C1634.4479,588.9352 1640.6812,589.5621 1647.7595,597.0409 C1652.9682,589.0807 1660.6222,588.332 1666.394,596.3856 C1672.5956,585.4958 1680.0942,586.3691 1686.5441,596.1434 C1691.9606,588.8898 1699.5606,588.3707 1703.7532,597.4342 C1709.3543,590.1967 1715.4433,588.2213 1721.1985,597.2691 C1727.4125,587.2136 1735.8162,588.2498 1742.1319,597.1568 C1748.0769,589.9247 1752.9764,589.229 1758.1308,597.9496 C1761.8698,589.5911 1770.7518,587.8723 1776.7041,595.3546 C1782.4212,586.0233 1791.0128,588.8027 1795.4308,596.7616 C1801.8299,587.3727 1809.3114,588.0143 1815.0743,597.4263 C1820.2837,587.7056 1827.2075,587.5331 1832.9586,596.9193 C1839.3122,590.074 1845.6996,590.1724 1850.8858,598.3155 C1856.1268,588.0079 1863.8482,588.9288 1870.3543,596.9735 C1884.337,601.074 1884.7293,611.499 1875.6636,620.7468 C1886.4397,630.073 1883.154,639.9281 1871.421,645.377 C1866.9585,656.7602 1857.6427,656.4512 1851.3186,647.1898 C1846.2891,656.159 1839.3518,657.9828 1832.9452,648.566 C1826.7269,656.1063 1819.961,655.1276 1815.1687,646.9531 C1811.2262,657.9125 1801.7622,659.2878 1795.2498,649.4097 C1790.2197,658.0694 1785.145,660.4502 1777.6308,651.962 C1772.1344,660.0773 1766.942,659.5348 1760.8224,652.661 C1754.5229,664.106 1747.2837,662.7575 1739.7978,653.8889 C1733.726,661.6814 1725.6016,660.8773 1722.5296,650.9634 C1716.467,658.5952 1708.3581,660.7871 1703.2129,650.0012 C1699.6532,657.6445 1691.4307,659.6763 1686.4358,651.5256 C1679.0912,659.1788 1672.5872,658.005 1668.4768,648.1989 C1661.5851,656.4804 1654.334,658.049 1648.4892,647.1102 C1641.8509,654.6708 1633.933,656.3467 1628.7415,645.5535 C1623.5931,653.8897 1617.2148,654.7177 1611.2275,646.4376 C1598.8961,638.4435 1595.7213,629.1532 1609.8968,619.8332 C1601.0159,612.2158 1599.7748,603.2485 1611.7284,597.3267 " fill="#FEFECE" style="stroke: #000000; stroke-width: 1.5;"/><text fill="#000000" font-family="sans-serif" font-size="14" lengthAdjust="spacingAndGlyphs" textLength="130" x="1617" y="616.4482">Platform S3 bucket</text><text fill="#000000" font-family="sans-serif" font-size="14" lengthAdjust="spacingAndGlyphs" textLength="244" x="1617" y="632.7451">plugins/&lt;repo&gt;/{plugin.xml, src/*}</text><!--MD5=[35586436a6ade92aad89d5ba744381f8]
entity ghcr--><path d="M1306.0324,596.914 C1309.8065,590.8689 1315.5875,592.6472 1318.0382,598.2751 C1320.4945,592.1392 1325.2133,591.7772 1328.8672,597.148 C1332.2316,592.023 1336.4153,591.6072 1340.4214,596.4006 C1344.4695,591.7517 1348.7908,590.5932 1352.4061,596.8751 C1354.8583,589.287 1361.1831,589.7008 1365.4713,595.016 C1370.2327,589.4698 1373.8746,591.0562 1377.3727,596.397 C1381.7543,590.1884 1385.7443,591.3036 1389.3073,597.2038 C1392.7836,591.3063 1397.3003,592.1715 1401.0722,596.8757 C1404.5712,591.3894 1410.5306,589.8953 1414.1792,596.7163 C1417.9977,589.969 1421.8058,589.9779 1426.1709,596.2114 C1430.7704,592.219 1434.6009,591.9472 1437.6511,597.9847 C1441.1359,593.0366 1445.2929,593.0756 1448.3574,598.4218 C1454.3953,599.3951 1454.8578,603.992 1451.6524,608.1092 C1458.9602,610.6905 1458.5554,616.1381 1453.5727,620.6077 C1459.8533,624.9488 1459.3364,630.0283 1452.3494,633.0666 C1456.5305,637.7409 1455.487,640.7807 1450.003,643.2217 C1445.6389,649.6179 1441.47,649.3525 1436.8086,643.543 C1434.1246,648.9949 1429.1229,649.78 1425.5776,644.4393 C1422.1035,651.4171 1415.927,650.6075 1412.2626,644.635 C1409.5275,649.6635 1403.8484,650.035 1400.8323,644.9527 C1397.8978,651.1055 1393.0334,650.1586 1389.4494,645.6457 C1385.3252,652.0368 1381.418,652.386 1376.9132,646.0197 C1373.8047,650.862 1368.9053,652.1943 1365.6382,646.1845 C1361.8721,651.6422 1355.9135,652.9136 1352.1531,646.1781 C1348.3262,652.1044 1344.3958,651.7333 1340.9251,645.8398 C1337.2845,651.3832 1331.1425,651.5763 1328.6782,644.6817 C1324.5551,651.173 1320.7002,650.2766 1316.3213,644.9491 C1312.5446,650.8717 1308.5045,650.7975 1304.6831,644.9933 C1297.5754,642.6919 1297.5076,637.5473 1301.7661,632.5758 C1295.03,631.5431 1292.4529,628.1137 1296.1307,621.6899 C1291.2392,615.2226 1294.5928,610.3963 1301.5614,609.0075 C1297.4598,602.8089 1298.5359,598.8248 1306.0324,596.914 " fill="#FEFECE" style="stroke: #000000; stroke-width: 1.5;"/><text fill="#000000" font-family="sans-serif" font-size="14" lengthAdjust="spacingAndGlyphs" textLength="41" x="1311" y="616.4482">GHCR</text><text fill="#000000" font-family="sans-serif" font-size="14" lengthAdjust="spacingAndGlyphs" textLength="130" x="1311" y="632.7451">(container registry)</text><!--MD5=[56cff748212adde75a819f66b7e2ce40]
link expert to web--><path d="M329,147.6831 C329,177.2831 329,214.3031 329,240.0131 " fill="none" id="expert-&gt;web" style="stroke: #A80036; stroke-width: 1.0;"/><polygon fill="#A80036" points="329,245.3231,333,236.3231,329,240.3231,325,236.3231,329,245.3231" style="stroke: #A80036; stroke-width: 1.0;"/><text fill="#000000" font-family="sans-serif" font-size="13" lengthAdjust="spacingAndGlyphs" textLength="41" x="330" y="190.52">HTTPS</text><!--MD5=[45dbe40f261669c2a6d9a019d2311e7d]
link web to tape_api--><path d="M268.52,298.5231 C248.8,310.9631 234,327.5631 243,347.4531 C251.63,366.5431 267.65,382.7631 283.6,395.2931 " fill="none" id="web-&gt;tape_api" style="stroke: #A80036; stroke-width: 1.0;"/><polygon fill="#A80036" points="287.66,398.3931,282.9487,389.7442,283.691,395.3522,278.0831,396.0946,287.66,398.3931" style="stroke: #A80036; stroke-width: 1.0;"/><text fill="#000000" font-family="sans-serif" font-size="13" lengthAdjust="spacingAndGlyphs" textLength="125" x="244" y="343.52">REST /api/* (HTTPS)</text><!--MD5=[75769c62bb22e55a2302763cc68a97ff]
reverse link web to tape_api--><path d="M358.09,302.5031 C364.58,310.8831 370.56,320.4631 374,330.4531 C382.19,354.1931 368.26,379.9331 353.96,398.3831 " fill="none" id="web&lt;-tape_api" style="stroke: #A80036; stroke-width: 1.0; stroke-dasharray: 7.0,7.0;"/><polygon fill="#A80036" points="354.88,298.4931,357.3915,308.0164,358.0087,302.3933,363.6318,303.0105,354.88,298.4931" style="stroke: #A80036; stroke-width: 1.0;"/><text fill="#000000" font-family="sans-serif" font-size="13" lengthAdjust="spacingAndGlyphs" textLength="101" x="378" y="343.52">WS /ws (events)</text><!--MD5=[a3374b9915f5c3eed2c6271ef2c7b128]
link tape_api to db--><path d="M402.33,433.1731 C476.84,442.0431 586.29,459.5031 617,487.9531 C636.83,506.3231 646.74,534.2731 651.62,559.6531 " fill="none" id="tape_api-&gt;db" style="stroke: #A80036; stroke-width: 1.0;"/><polygon fill="#A80036" points="652.53,564.6931,654.8702,555.1263,651.6431,559.7724,646.9971,556.5453,652.53,564.6931" style="stroke: #A80036; stroke-width: 1.0;"/><text fill="#000000" font-family="sans-serif" font-size="13" lengthAdjust="spacingAndGlyphs" textLength="132" x="647" y="516.02">SQL (psycopg3 pool)</text><!--MD5=[209b83ef50949e74dc1ee98df4dfd653]
link tape_api to redis--><path d="M293.8,451.5131 C277.92,461.6831 258.68,472.6831 240,479.9531 C223.51,486.3731 214.95,477.0731 201,487.9531 C183.5,501.6031 160.32,558.3131 147.51,592.4831 " fill="none" id="tape_api-&gt;redis" style="stroke: #A80036; stroke-width: 1.0;"/><polygon fill="#A80036" points="145.7,597.3531,152.5866,590.3122,147.4431,592.6668,145.0885,587.5233,145.7,597.3531" style="stroke: #A80036; stroke-width: 1.0;"/><text fill="#000000" font-family="sans-serif" font-size="13" lengthAdjust="spacingAndGlyphs" textLength="140" x="202" y="516.02">Redis (sessions, tape)</text><!--MD5=[2d9ae544cf7b5297088192a11fd46b2e]
link tape_worker to db--><path d="M172.39,451.4931 C192.22,462.1831 216.6,473.5931 240,479.9531 C263.01,486.2131 326.03,476.6031 347,487.9531 C370.14,500.4731 361.4,519.9231 383,534.9531 C389.81,539.6931 464.06,562.4131 533.41,583.0431 " fill="none" id="tape_worker-&gt;db" style="stroke: #A80036; stroke-width: 1.0;"/><polygon fill="#A80036" points="538.39,584.5231,530.9049,578.122,533.5977,583.0969,528.6229,585.7897,538.39,584.5231" style="stroke: #A80036; stroke-width: 1.0;"/><text fill="#000000" font-family="sans-serif" font-size="13" lengthAdjust="spacingAndGlyphs" textLength="137" x="384" y="516.02">SQL + LISTEN/NOTIFY</text><!--MD5=[0dbb5d1942f928b4c2000cd7a150447a]
link tape_worker to redis--><path d="M96.57,451.4931 C86,461.5731 75.62,474.0631 70,487.9531 C62.16,507.3131 63.03,515.2631 70,534.9531 C77.97,557.4531 94.81,578.3331 109.74,593.6531 " fill="none" id="tape_worker-&gt;redis" style="stroke: #A80036; stroke-width: 1.0;"/><polygon fill="#A80036" points="113.48,597.4231,109.963,588.2236,109.9516,593.8805,104.2948,593.869,113.48,597.4231" style="stroke: #A80036; stroke-width: 1.0;"/><text fill="#000000" font-family="sans-serif" font-size="13" lengthAdjust="spacingAndGlyphs" textLength="89" x="71" y="516.02">Redis pub/sub</text><!--MD5=[54ac0178cdedb755a489e19d41d83c18]
link tape_api to sdk--><path d="M402.48,432.5531 C523.26,444.0431 755.74,468.3231 788,487.9531 C793.12,491.0631 833.11,549.4531 858.65,587.2231 " fill="none" id="tape_api-&gt;sdk" style="stroke: #A80036; stroke-width: 1.0; stroke-dasharray: 7.0,7.0;"/><polygon fill="#A80036" points="861.69,591.7231,859.9644,582.0266,858.8902,587.5805,853.3363,586.5063,861.69,591.7231" style="stroke: #A80036; stroke-width: 1.0;"/><text fill="#000000" font-family="sans-serif" font-size="13" lengthAdjust="spacingAndGlyphs" textLength="49" x="822" y="516.02">imports</text><!--MD5=[a42b70a0ddf8a8f6b7538eb82a7fc1e4]
link tape_worker to sdk--><path d="M171.47,451.5731 C191.42,462.4931 216.15,474.0631 240,479.9531 C270.86,487.5731 498.11,472.6931 526,487.9531 C548.17,500.0831 536.03,522.4731 558,534.9531 C603.1,560.5731 742.51,530.5231 791,548.9531 C813.19,557.3831 834.25,573.4431 850.31,588.0531 " fill="none" id="tape_worker-&gt;sdk" style="stroke: #A80036; stroke-width: 1.0; stroke-dasharray: 7.0,7.0;"/><polygon fill="#A80036" points="854.28,591.7231,850.3945,582.6731,850.6115,588.3258,844.9588,588.5428,854.28,591.7231" style="stroke: #A80036; stroke-width: 1.0;"/><text fill="#000000" font-family="sans-serif" font-size="13" lengthAdjust="spacingAndGlyphs" textLength="49" x="559" y="516.02">imports</text><!--MD5=[e85c1bd37198b3ed4b0d92caaa33d480]
link sched to n8n--><path d="M732.41,147.8131 C742.86,163.5731 755.47,180.5731 769,194.4531 C790.69,216.6931 819.49,237.0231 841.59,251.1231 " fill="none" id="sched-&gt;n8n" style="stroke: #A80036; stroke-width: 1.0;"/><polygon fill="#A80036" points="845.92,253.8531,840.4476,245.6645,841.6929,251.1826,836.1748,252.4279,845.92,253.8531" style="stroke: #A80036; stroke-width: 1.0;"/><text fill="#000000" font-family="sans-serif" font-size="13" lengthAdjust="spacingAndGlyphs" textLength="96" x="770" y="190.52">cron / webhook</text><!--MD5=[669c0251d247d912e53642614d7794e6]
link n8n to sapi--><path d="M848.45,290.0831 C830.36,304.1131 811.02,325.2131 819,347.4531 C826.75,369.0631 843.54,388.9331 857.84,403.0031 " fill="none" id="n8n-&gt;sapi" style="stroke: #A80036; stroke-width: 1.0;"/><polygon fill="#A80036" points="861.8,406.8131,858.0979,397.6865,858.2008,403.3424,852.5449,403.4453,861.8,406.8131" style="stroke: #A80036; stroke-width: 1.0;"/><text fill="#000000" font-family="sans-serif" font-size="13" lengthAdjust="spacingAndGlyphs" textLength="32" x="820" y="343.52">HTTP</text><!--MD5=[c6f1c2bbc30c8d8804e1d04a03049c05]
link n8n to n8n_pg--><path d="M880.64,290.0231 C887.27,307.2831 899.97,333.3831 920,347.4531 C934.84,357.8731 943.42,348.1231 960,355.4531 C979.78,364.1931 999.4,377.7331 1015.49,390.4731 " fill="none" id="n8n-&gt;n8n_pg" style="stroke: #A80036; stroke-width: 1.0;"/><polygon fill="#A80036" points="1019.5,393.6831,1014.9827,384.9313,1015.5998,390.5544,1009.9768,391.1716,1019.5,393.6831" style="stroke: #A80036; stroke-width: 1.0;"/><text fill="#000000" font-family="sans-serif" font-size="13" lengthAdjust="spacingAndGlyphs" textLength="132" x="921" y="343.52">SQL (own metadata)</text><!--MD5=[76ba6d2d4df94ab6fc808ac040644335]
link sapi to db--><path d="M888.1,443.0231 C895.35,466.6631 903.91,509.3731 882,534.9531 C868.83,550.3231 811.25,542.6831 792,548.9531 C780.19,552.8031 768.15,557.5831 756.36,562.8231 " fill="none" id="sapi-&gt;db" style="stroke: #A80036; stroke-width: 1.0;"/><polygon fill="#A80036" points="751.68,564.9331,761.5287,564.876,756.2372,562.876,758.2372,557.5845,751.68,564.9331" style="stroke: #A80036; stroke-width: 1.0;"/><text fill="#000000" font-family="sans-serif" font-size="13" lengthAdjust="spacingAndGlyphs" textLength="26" x="897" y="516.02">SQL</text><!--MD5=[a547ebfcc7342f57637aab1c1bbe5ff7]
link bkp to n8n_pg--><path d="M1068.08,289.9831 C1065.41,313.7531 1060.49,357.4431 1057,388.4631 " fill="none" id="bkp-&gt;n8n_pg" style="stroke: #A80036; stroke-width: 1.0;"/><polygon fill="#A80036" points="1056.4,393.7131,1061.4043,385.2304,1056.9726,388.746,1053.457,384.3143,1056.4,393.7131" style="stroke: #A80036; stroke-width: 1.0;"/><text fill="#000000" font-family="sans-serif" font-size="13" lengthAdjust="spacingAndGlyphs" textLength="116" x="1064" y="343.52">pg_dump (nightly)</text><!--MD5=[bbe6fee497e5c5b37203f66337528bc2]
link ah to n8n--><path d="M875,116.5231 C875,147.7231 875,213.9431 875,248.6631 " fill="none" id="ah-&gt;n8n" style="stroke: #A80036; stroke-width: 1.0; stroke-dasharray: 7.0,7.0;"/><polygon fill="#A80036" points="875,253.9531,879,244.9531,875,248.9531,871,244.9531,875,253.9531" style="stroke: #A80036; stroke-width: 1.0;"/><text fill="#000000" font-family="sans-serif" font-size="13" lengthAdjust="spacingAndGlyphs" textLength="94" x="876" y="190.52">health monitor</text><!--MD5=[54b1ec4a650a1abe6aa50a10a161d7c4]
link node to db--><path d="M1276.07,451.4731 C1255,462.3831 1228.95,473.9531 1204,479.9531 C1156,491.4931 1027.56,468.9431 982,487.9531 C953.85,499.6931 959.76,522.3231 932,534.9531 C875.08,560.8531 851.97,531.2231 792,548.9531 C779.64,552.6131 767.07,557.3931 754.82,562.7531 " fill="none" id="node-&gt;db" style="stroke: #A80036; stroke-width: 1.0;"/><polygon fill="#A80036" points="749.96,564.9131,759.8089,564.9188,754.5302,562.8851,756.564,557.6065,749.96,564.9131" style="stroke: #A80036; stroke-width: 1.0;"/><text fill="#000000" font-family="sans-serif" font-size="13" lengthAdjust="spacingAndGlyphs" textLength="26" x="1069" y="501.02">SQL</text><text fill="#000000" font-family="sans-serif" font-size="13" lengthAdjust="spacingAndGlyphs" textLength="140" x="1012" y="516.1528">(poll tasks, heartbeat,</text><text fill="#000000" font-family="sans-serif" font-size="13" lengthAdjust="spacingAndGlyphs" textLength="198" x="983" y="531.2856">status_update, document add)</text><!--MD5=[2ad7dfafc3b2825fe2ff127c98ca06e6]
link node to s3--><path d="M1341.87,451.4731 C1351.1,462.5131 1361.81,475.6831 1371,487.9531 C1386.15,508.1731 1381.92,521.0231 1403,534.9531 C1429.84,552.6831 1442.66,541.7331 1474,548.9531 C1523.66,560.3931 1578.15,574.5131 1624.74,587.0731 " fill="none" id="node-&gt;s3" style="stroke: #A80036; stroke-width: 1.0;"/><polygon fill="#A80036" points="1629.8,588.4331,1622.1665,582.2098,1624.9755,587.12,1620.0654,589.929,1629.8,588.4331" style="stroke: #A80036; stroke-width: 1.0;"/><text fill="#000000" font-family="sans-serif" font-size="13" lengthAdjust="spacingAndGlyphs" textLength="41" x="1461" y="508.52">S3 API</text><text fill="#000000" font-family="sans-serif" font-size="13" lengthAdjust="spacingAndGlyphs" textLength="155" x="1404" y="523.6528">(GET plugins/&lt;repo&gt;/...)</text><!--MD5=[ab79b605a18d7d36cc3a468b0db67b90]
link node to sdk--><path d="M1292.25,451.6831 C1261.06,480.1431 1211.93,523.5031 1190,534.9531 C1115.57,573.8131 1021.45,596.0231 956.55,607.7231 " fill="none" id="node-&gt;sdk" style="stroke: #A80036; stroke-width: 1.0; stroke-dasharray: 7.0,7.0;"/><polygon fill="#A80036" points="951.54,608.6131,961.1056,610.9582,956.4612,607.7287,959.6906,603.0843,951.54,608.6131" style="stroke: #A80036; stroke-width: 1.0;"/><text fill="#000000" font-family="sans-serif" font-size="13" lengthAdjust="spacingAndGlyphs" textLength="49" x="1251" y="516.02">imports</text><!--MD5=[eda1899634dac263d50706e6fc3303b9]
link argo to node--><path d="M1320,298.5731 C1320,324.7131 1320,365.2931 1320,393.1631 " fill="none" id="argo-&gt;node" style="stroke: #A80036; stroke-width: 1.0;"/><polygon fill="#A80036" points="1320,398.2131,1324,389.2131,1320,393.2131,1316,389.2131,1320,398.2131" style="stroke: #A80036; stroke-width: 1.0;"/><text fill="#000000" font-family="sans-serif" font-size="13" lengthAdjust="spacingAndGlyphs" textLength="72" x="1321" y="343.52">Helm apply</text><!--MD5=[2755e2f4e142ebaf02bb35593b059eff]
reverse link node to ghcr--><path d="M1313.84,456.9031 C1310.68,479.1431 1308.97,509.5531 1317,534.9531 C1323.18,554.4931 1335.71,573.4331 1347.64,588.3631 " fill="none" id="node&lt;-ghcr" style="stroke: #A80036; stroke-width: 1.0; stroke-dasharray: 7.0,7.0;"/><polygon fill="#A80036" points="1314.62,451.7231,1309.3268,460.0287,1313.8769,456.6676,1317.238,461.2177,1314.62,451.7231" style="stroke: #A80036; stroke-width: 1.0;"/><text fill="#000000" font-family="sans-serif" font-size="13" lengthAdjust="spacingAndGlyphs" textLength="48" x="1318" y="516.02">OCI pull</text><!--MD5=[bd1764fdfcb837c1491c07276387d92e]
link author to tpl--><path d="M1848.15,129.4831 C1858.69,143.6931 1871,161.0931 1881,177.4531 C1895.12,200.5631 1909,228.3031 1918.18,247.5431 " fill="none" id="author-&gt;tpl" style="stroke: #A80036; stroke-width: 1.0;"/><polygon fill="#A80036" points="1920.4,252.2331,1920.1541,242.3873,1918.2559,247.7162,1912.927,245.8179,1920.4,252.2331" style="stroke: #A80036; stroke-width: 1.0;"/><text fill="#000000" font-family="sans-serif" font-size="13" lengthAdjust="spacingAndGlyphs" textLength="85" x="1890" y="190.52">fork / scaffold</text><!--MD5=[00954e15fafded6f16c157142e9e1c9f]
link author to plugrepo--><path d="M1801.85,115.6531 C1783.37,129.8431 1758.27,152.1031 1744,177.4531 C1731.79,199.1431 1726.68,227.4231 1724.54,247.1731 " fill="none" id="author-&gt;plugrepo" style="stroke: #A80036; stroke-width: 1.0;"/><polygon fill="#A80036" points="1724.03,252.2531,1728.9106,243.6986,1724.5303,247.2782,1720.9507,242.898,1724.03,252.2531" style="stroke: #A80036; stroke-width: 1.0;"/><text fill="#000000" font-family="sans-serif" font-size="13" lengthAdjust="spacingAndGlyphs" textLength="131" x="1745" y="190.52">push commits / tags</text><!--MD5=[1fa837beccf620b93365718bf9bad46b]
link plugrepo to gha--><path d="M1723,291.4731 C1723,319.1931 1723,371.4431 1723,401.3731 " fill="none" id="plugrepo-&gt;gha" style="stroke: #A80036; stroke-width: 1.0;"/><polygon fill="#A80036" points="1723,406.6831,1727,397.6831,1723,401.6831,1719,397.6831,1723,406.6831" style="stroke: #A80036; stroke-width: 1.0;"/><text fill="#000000" font-family="sans-serif" font-size="13" lengthAdjust="spacingAndGlyphs" textLength="99" x="1724" y="343.52">workflow trigger</text><!--MD5=[d433cc946ccc9f002f062fff6eb47144]
link gha to s3--><path d="M1735.14,443.1831 C1742.79,455.1331 1751.96,471.7431 1756,487.9531 C1763.95,519.7931 1757.7,556.9631 1750.64,583.5631 " fill="none" id="gha-&gt;s3" style="stroke: #A80036; stroke-width: 1.0;"/><polygon fill="#A80036" points="1749.32,588.4031,1755.549,580.7743,1750.6368,583.5796,1747.8314,578.6674,1749.32,588.4031" style="stroke: #A80036; stroke-width: 1.0;"/><text fill="#000000" font-family="sans-serif" font-size="13" lengthAdjust="spacingAndGlyphs" textLength="123" x="1760" y="516.02">PUT plugin artifacts</text><!--MD5=[52d79408be124103a968f1c6c0506c53]
link gha to ghcr--><path d="M1675.8,443.0631 C1651.37,453.4931 1622.11,468.5631 1600,487.9531 C1581,504.6131 1587.45,518.8131 1568,534.9531 C1536.92,560.7531 1496.69,579.9731 1461.09,593.4631 " fill="none" id="gha-&gt;ghcr" style="stroke: #A80036; stroke-width: 1.0;"/><polygon fill="#A80036" points="1456.32,595.2431,1466.1515,595.8283,1461.0016,593.4875,1463.3425,588.3377,1456.32,595.2431" style="stroke: #A80036; stroke-width: 1.0;"/><text fill="#000000" font-family="sans-serif" font-size="13" lengthAdjust="spacingAndGlyphs" textLength="146" x="1601" y="516.02">push container images</text><!--MD5=[621c62c32b96cd56f0827cf88d30e2fa]
link operator to argo--><path d="M1283.34,147.6831 C1292.18,177.4031 1303.25,214.6131 1310.9,240.3431 " fill="none" id="operator-&gt;argo" style="stroke: #A80036; stroke-width: 1.0;"/><polygon fill="#A80036" points="1312.38,245.3231,1313.6386,235.555,1310.9498,240.532,1305.9728,237.8433,1312.38,245.3231" style="stroke: #A80036; stroke-width: 1.0;"/><text fill="#000000" font-family="sans-serif" font-size="13" lengthAdjust="spacingAndGlyphs" textLength="141" x="1297" y="190.52">Git push to cloud-core</text><!--MD5=[8b78737489e03bb066332a1ccd50c104]
link operator to n8n--><path d="M1238.43,125.6131 C1228.02,133.5131 1215.98,141.6231 1204,147.4531 C1121.49,187.6031 1090.31,168.6431 1005,202.4531 C970.47,216.1331 933.18,236.4031 907.42,251.3531 " fill="none" id="operator-&gt;n8n" style="stroke: #A80036; stroke-width: 1.0;"/><polygon fill="#A80036" points="903.07,253.8931,912.8615,252.8315,907.3935,251.3818,908.8433,245.9138,903.07,253.8931" style="stroke: #A80036; stroke-width: 1.0;"/><text fill="#000000" font-family="sans-serif" font-size="13" lengthAdjust="spacingAndGlyphs" textLength="88" x="1103" y="190.52">edit workflows</text><!--MD5=[9e050acdd17d91ffd6c005efb2304f31]
@startuml
!pragma layout smetana
title S3-Platform — Component Diagram

skinparam componentStyle rectangle

actor "Annotation\nExpert"    as expert
actor "Plugin\nAuthor"        as author
actor "Platform\nOperator"    as operator
actor "n8n Scheduler"         as sched <<system>>

package "Browser" {
  [s3p-web-annotation\n(React 19 + TS + Vite)] as web
}

package "Compose host (s3p-n8n)" {
  [n8nio/n8n:latest] as n8n
  [s3p-simple-api] as sapi
  database "n8n metadata\n(Postgres 12)" as n8n_pg
  [pg_backup] as bkp
  [autoheal] as ah
}

package "VM (s3p-tape-service)" {
  [tape-service-api\n(FastAPI / Uvicorn)] as tape_api
  [tape-service-worker\n(APScheduler + LISTEN)] as tape_worker
  database "Redis" as redis
}

package "Kubernetes cluster (demo-s3p-dev)" {
  [s3p-node\n(3 replicas, worker)] as node
  [ArgoCD Application\n(cloud-core)] as argo
}

package "Shared library" {
  artifact "s3p-sdk\n(Python lib, PyPI)" as sdk
}

database "s3p-database\n(Postgres 16, schemas:\nnodes, tasks, plugins, sources,\nml, documents, analytics,\ncontrol, score, users)" as db

cloud "Platform S3 bucket\nplugins/<repo>/{plugin.xml, src/*}" as s3
cloud "GitHub" as github {
  artifact "plugin-template repo" as tpl
  artifact "plugin source repos" as plugrepo
  [GitHub Actions CI] as gha
}
cloud "GHCR\n(container registry)" as ghcr

expert       - -> web   : HTTPS
web          - -> tape_api : REST /api/* (HTTPS)
web          <.. tape_api : WS /ws (events)

tape_api     - -> db    : SQL (psycopg3 pool)
tape_api     - -> redis : Redis (sessions, tape)
tape_worker  - -> db    : SQL + LISTEN/NOTIFY
tape_worker  - -> redis : Redis pub/sub
tape_api     ..>  sdk  : imports
tape_worker  ..>  sdk  : imports

sched        - -> n8n   : cron / webhook
n8n          - -> sapi  : HTTP
n8n          - -> n8n_pg : SQL (own metadata)
sapi         - -> db    : SQL
bkp          - -> n8n_pg : pg_dump (nightly)
ah           ..> n8n   : health monitor

node         - -> db    : SQL\n(poll tasks, heartbeat,\nstatus_update, document add)
node         - -> s3    : S3 API\n(GET plugins/<repo>/...)
node         ..> sdk   : imports

argo         - -> node  : Helm apply
node         <.. ghcr  : OCI pull

author       - -> tpl   : fork / scaffold
author       - -> plugrepo : push commits / tags
plugrepo     - -> gha   : workflow trigger
gha          - -> s3    : PUT plugin artifacts
gha          - -> ghcr  : push container images

operator     - -> argo  : Git push to cloud-core
operator     - -> n8n   : edit workflows

@enduml

PlantUML version 1.2020.02(Sun Mar 01 10:22:07 UTC 2020)
(GPL source distribution)
Java Runtime: OpenJDK Runtime Environment
JVM: OpenJDK 64-Bit Server VM
Java Version: 17.0.19+10
Operating System: Linux
Default Encoding: UTF-8
Language: en
Country: null
--></g></svg>